<svg width="290" height="46" viewBox="0 0 290 46" fill="none" xmlns="http://www.w3.org/2000/svg">
<rect width="290" height="46" rx="23" fill="#1571FF"/>
<path d="M56.4062 24.5215H53.6523V30H51.1816V15.7812H56.1816C57.8223 15.7812 59.0885 16.1491 59.9805 16.8848C60.8724 17.6204 61.3184 18.6849 61.3184 20.0781C61.3184 21.0286 61.0872 21.8262 60.625 22.4707C60.1693 23.1087 59.5312 23.6003 58.7109 23.9453L61.9043 29.873V30H59.2578L56.4062 24.5215ZM53.6523 22.5391H56.1914C57.0247 22.5391 57.6758 22.3307 58.1445 21.9141C58.6133 21.4909 58.8477 20.9147 58.8477 20.1855C58.8477 19.4238 58.6296 18.8346 58.1934 18.418C57.7637 18.0013 57.1191 17.7865 56.2598 17.7734H53.6523V22.5391ZM68.0859 30.1953C66.582 30.1953 65.3613 29.7233 64.4238 28.7793C63.4928 27.8288 63.0273 26.5658 63.0273 24.9902V24.6973C63.0273 23.6426 63.2292 22.7018 63.6328 21.875C64.043 21.0417 64.6159 20.3939 65.3516 19.9316C66.0872 19.4694 66.9076 19.2383 67.8125 19.2383C69.2513 19.2383 70.3613 19.6973 71.1426 20.6152C71.9303 21.5332 72.3242 22.832 72.3242 24.5117V25.4688H65.4199C65.4915 26.3411 65.7812 27.0312 66.2891 27.5391C66.8034 28.0469 67.4479 28.3008 68.2227 28.3008C69.3099 28.3008 70.1953 27.8613 70.8789 26.9824L72.1582 28.2031C71.735 28.8346 71.1686 29.3262 70.459 29.6777C69.7559 30.0228 68.9648 30.1953 68.0859 30.1953ZM67.8027 21.1426C67.1517 21.1426 66.6243 21.3704 66.2207 21.8262C65.8236 22.2819 65.5697 22.9167 65.459 23.7305H69.9805V23.5547C69.9284 22.7604 69.7168 22.1615 69.3457 21.7578C68.9746 21.3477 68.4603 21.1426 67.8027 21.1426ZM80.0977 27.1289C80.0977 26.7057 79.9219 26.3835 79.5703 26.1621C79.2253 25.9408 78.6491 25.7454 77.8418 25.5762C77.0345 25.4069 76.3607 25.1921 75.8203 24.9316C74.6354 24.3587 74.043 23.5286 74.043 22.4414C74.043 21.5299 74.4271 20.7682 75.1953 20.1562C75.9635 19.5443 76.9401 19.2383 78.125 19.2383C79.388 19.2383 80.4069 19.5508 81.1816 20.1758C81.9629 20.8008 82.3535 21.6113 82.3535 22.6074H79.9805C79.9805 22.1517 79.8112 21.7741 79.4727 21.4746C79.1341 21.1686 78.6849 21.0156 78.125 21.0156C77.6042 21.0156 77.1777 21.1361 76.8457 21.377C76.5202 21.6178 76.3574 21.9401 76.3574 22.3438C76.3574 22.7083 76.5104 22.9915 76.8164 23.1934C77.1224 23.3952 77.7409 23.6003 78.6719 23.8086C79.6029 24.0104 80.332 24.2546 80.8594 24.541C81.3932 24.821 81.7871 25.1595 82.041 25.5566C82.3014 25.9538 82.4316 26.4355 82.4316 27.002C82.4316 27.9525 82.0378 28.724 81.25 29.3164C80.4622 29.9023 79.4303 30.1953 78.1543 30.1953C77.2884 30.1953 76.5169 30.0391 75.8398 29.7266C75.1628 29.4141 74.6354 28.9844 74.2578 28.4375C73.8802 27.8906 73.6914 27.3014 73.6914 26.6699H75.9961C76.0286 27.2298 76.2402 27.6628 76.6309 27.9688C77.0215 28.2682 77.5391 28.418 78.1836 28.418C78.8086 28.418 79.2839 28.3008 79.6094 28.0664C79.9349 27.8255 80.0977 27.513 80.0977 27.1289ZM89.1602 30.1953C87.6562 30.1953 86.4355 29.7233 85.498 28.7793C84.5671 27.8288 84.1016 26.5658 84.1016 24.9902V24.6973C84.1016 23.6426 84.3034 22.7018 84.707 21.875C85.1172 21.0417 85.6901 20.3939 86.4258 19.9316C87.1615 19.4694 87.9818 19.2383 88.8867 19.2383C90.3255 19.2383 91.4355 19.6973 92.2168 20.6152C93.0046 21.5332 93.3984 22.832 93.3984 24.5117V25.4688H86.4941C86.5658 26.3411 86.8555 27.0312 87.3633 27.5391C87.8776 28.0469 88.5221 28.3008 89.2969 28.3008C90.3841 28.3008 91.2695 27.8613 91.9531 26.9824L93.2324 28.2031C92.8092 28.8346 92.2428 29.3262 91.5332 29.6777C90.8301 30.0228 90.0391 30.1953 89.1602 30.1953ZM88.877 21.1426C88.2259 21.1426 87.6986 21.3704 87.2949 21.8262C86.8978 22.2819 86.6439 22.9167 86.5332 23.7305H91.0547V23.5547C91.0026 22.7604 90.791 22.1615 90.4199 21.7578C90.0488 21.3477 89.5345 21.1426 88.877 21.1426ZM98.2227 16.8652V19.4336H100.088V21.1914H98.2227V27.0898C98.2227 27.4935 98.3008 27.7865 98.457 27.9688C98.6198 28.1445 98.9062 28.2324 99.3164 28.2324C99.5898 28.2324 99.8665 28.1999 100.146 28.1348V29.9707C99.6061 30.1204 99.0853 30.1953 98.584 30.1953C96.7611 30.1953 95.8496 29.1895 95.8496 27.1777V21.1914H94.1113V19.4336H95.8496V16.8652H98.2227ZM111.758 22.5195L115.029 15.7812H117.764L112.998 24.7656V30H110.518V24.7656L105.742 15.7812H108.486L111.758 22.5195ZM117.988 24.6191C117.988 23.584 118.193 22.653 118.604 21.8262C119.014 20.9928 119.59 20.3548 120.332 19.9121C121.074 19.4629 121.927 19.2383 122.891 19.2383C124.316 19.2383 125.472 19.6973 126.357 20.6152C127.249 21.5332 127.731 22.7507 127.803 24.2676L127.812 24.8242C127.812 25.8659 127.611 26.7969 127.207 27.6172C126.81 28.4375 126.237 29.0723 125.488 29.5215C124.746 29.9707 123.887 30.1953 122.91 30.1953C121.419 30.1953 120.225 29.7005 119.326 28.7109C118.434 27.7148 117.988 26.39 117.988 24.7363V24.6191ZM120.361 24.8242C120.361 25.9115 120.586 26.7643 121.035 27.3828C121.484 27.9948 122.109 28.3008 122.91 28.3008C123.711 28.3008 124.333 27.9883 124.775 27.3633C125.225 26.7383 125.449 25.8236 125.449 24.6191C125.449 23.5514 125.218 22.7051 124.756 22.0801C124.3 21.4551 123.678 21.1426 122.891 21.1426C122.116 21.1426 121.501 21.4518 121.045 22.0703C120.589 22.6823 120.361 23.6003 120.361 24.8242ZM136.221 28.9648C135.524 29.7852 134.535 30.1953 133.252 30.1953C132.106 30.1953 131.237 29.86 130.645 29.1895C130.059 28.5189 129.766 27.5488 129.766 26.2793V19.4336H132.139V26.25C132.139 27.5911 132.695 28.2617 133.809 28.2617C134.961 28.2617 135.739 27.8483 136.143 27.0215V19.4336H138.516V30H136.279L136.221 28.9648ZM146.465 21.6016C146.152 21.5495 145.83 21.5234 145.498 21.5234C144.411 21.5234 143.678 21.9401 143.301 22.7734V30H140.928V19.4336H143.193L143.252 20.6152C143.825 19.6973 144.619 19.2383 145.635 19.2383C145.973 19.2383 146.253 19.2839 146.475 19.375L146.465 21.6016ZM155.645 24.7168V30H153.174V15.7812H158.613C160.202 15.7812 161.462 16.1947 162.393 17.0215C163.33 17.8483 163.799 18.9421 163.799 20.3027C163.799 21.696 163.34 22.7799 162.422 23.5547C161.51 24.3294 160.231 24.7168 158.584 24.7168H155.645ZM155.645 22.7344H158.613C159.492 22.7344 160.163 22.5293 160.625 22.1191C161.087 21.7025 161.318 21.1035 161.318 20.3223C161.318 19.554 161.084 18.9421 160.615 18.4863C160.146 18.0241 159.502 17.7865 158.682 17.7734H155.645V22.7344ZM171.934 30C171.829 29.7982 171.738 29.4694 171.66 29.0137C170.905 29.8014 169.98 30.1953 168.887 30.1953C167.826 30.1953 166.96 29.8926 166.289 29.2871C165.618 28.6816 165.283 27.9329 165.283 27.041C165.283 25.9147 165.7 25.0521 166.533 24.4531C167.373 23.8477 168.571 23.5449 170.127 23.5449H171.582V22.8516C171.582 22.3047 171.429 21.8685 171.123 21.543C170.817 21.2109 170.352 21.0449 169.727 21.0449C169.186 21.0449 168.743 21.1816 168.398 21.4551C168.053 21.722 167.881 22.0638 167.881 22.4805H165.508C165.508 21.901 165.7 21.3607 166.084 20.8594C166.468 20.3516 166.989 19.9544 167.646 19.668C168.311 19.3815 169.049 19.2383 169.863 19.2383C171.1 19.2383 172.087 19.5508 172.822 20.1758C173.558 20.7943 173.936 21.6667 173.955 22.793V27.5586C173.955 28.5091 174.089 29.2676 174.355 29.834V30H171.934ZM169.326 28.291C169.795 28.291 170.234 28.1771 170.645 27.9492C171.061 27.7214 171.374 27.4154 171.582 27.0312V25.0391H170.303C169.424 25.0391 168.763 25.1921 168.32 25.498C167.878 25.804 167.656 26.237 167.656 26.7969C167.656 27.2526 167.806 27.6172 168.105 27.8906C168.411 28.1576 168.818 28.291 169.326 28.291ZM182.363 27.1289C182.363 26.7057 182.188 26.3835 181.836 26.1621C181.491 25.9408 180.915 25.7454 180.107 25.5762C179.3 25.4069 178.626 25.1921 178.086 24.9316C176.901 24.3587 176.309 23.5286 176.309 22.4414C176.309 21.5299 176.693 20.7682 177.461 20.1562C178.229 19.5443 179.206 19.2383 180.391 19.2383C181.654 19.2383 182.673 19.5508 183.447 20.1758C184.229 20.8008 184.619 21.6113 184.619 22.6074H182.246C182.246 22.1517 182.077 21.7741 181.738 21.4746C181.4 21.1686 180.951 21.0156 180.391 21.0156C179.87 21.0156 179.443 21.1361 179.111 21.377C178.786 21.6178 178.623 21.9401 178.623 22.3438C178.623 22.7083 178.776 22.9915 179.082 23.1934C179.388 23.3952 180.007 23.6003 180.938 23.8086C181.868 24.0104 182.598 24.2546 183.125 24.541C183.659 24.821 184.053 25.1595 184.307 25.5566C184.567 25.9538 184.697 26.4355 184.697 27.002C184.697 27.9525 184.303 28.724 183.516 29.3164C182.728 29.9023 181.696 30.1953 180.42 30.1953C179.554 30.1953 178.783 30.0391 178.105 29.7266C177.428 29.4141 176.901 28.9844 176.523 28.4375C176.146 27.8906 175.957 27.3014 175.957 26.6699H178.262C178.294 27.2298 178.506 27.6628 178.896 27.9688C179.287 28.2682 179.805 28.418 180.449 28.418C181.074 28.418 181.549 28.3008 181.875 28.0664C182.201 27.8255 182.363 27.513 182.363 27.1289ZM192.695 27.1289C192.695 26.7057 192.52 26.3835 192.168 26.1621C191.823 25.9408 191.247 25.7454 190.439 25.5762C189.632 25.4069 188.958 25.1921 188.418 24.9316C187.233 24.3587 186.641 23.5286 186.641 22.4414C186.641 21.5299 187.025 20.7682 187.793 20.1562C188.561 19.5443 189.538 19.2383 190.723 19.2383C191.986 19.2383 193.005 19.5508 193.779 20.1758C194.561 20.8008 194.951 21.6113 194.951 22.6074H192.578C192.578 22.1517 192.409 21.7741 192.07 21.4746C191.732 21.1686 191.283 21.0156 190.723 21.0156C190.202 21.0156 189.775 21.1361 189.443 21.377C189.118 21.6178 188.955 21.9401 188.955 22.3438C188.955 22.7083 189.108 22.9915 189.414 23.1934C189.72 23.3952 190.339 23.6003 191.27 23.8086C192.201 24.0104 192.93 24.2546 193.457 24.541C193.991 24.821 194.385 25.1595 194.639 25.5566C194.899 25.9538 195.029 26.4355 195.029 27.002C195.029 27.9525 194.635 28.724 193.848 29.3164C193.06 29.9023 192.028 30.1953 190.752 30.1953C189.886 30.1953 189.115 30.0391 188.438 29.7266C187.76 29.4141 187.233 28.9844 186.855 28.4375C186.478 27.8906 186.289 27.3014 186.289 26.6699H188.594C188.626 27.2298 188.838 27.6628 189.229 27.9688C189.619 28.2682 190.137 28.418 190.781 28.418C191.406 28.418 191.882 28.3008 192.207 28.0664C192.533 27.8255 192.695 27.513 192.695 27.1289ZM206.387 26.7285L208.066 19.4336H210.381L207.5 30H205.547L203.281 22.7441L201.055 30H199.102L196.211 19.4336H198.525L200.234 26.6504L202.402 19.4336H204.189L206.387 26.7285ZM211.523 24.6191C211.523 23.584 211.729 22.653 212.139 21.8262C212.549 20.9928 213.125 20.3548 213.867 19.9121C214.609 19.4629 215.462 19.2383 216.426 19.2383C217.852 19.2383 219.007 19.6973 219.893 20.6152C220.785 21.5332 221.266 22.7507 221.338 24.2676L221.348 24.8242C221.348 25.8659 221.146 26.7969 220.742 27.6172C220.345 28.4375 219.772 29.0723 219.023 29.5215C218.281 29.9707 217.422 30.1953 216.445 30.1953C214.954 30.1953 213.76 29.7005 212.861 28.7109C211.969 27.7148 211.523 26.39 211.523 24.7363V24.6191ZM213.896 24.8242C213.896 25.9115 214.121 26.7643 214.57 27.3828C215.02 27.9948 215.645 28.3008 216.445 28.3008C217.246 28.3008 217.868 27.9883 218.311 27.3633C218.76 26.7383 218.984 25.8236 218.984 24.6191C218.984 23.5514 218.753 22.7051 218.291 22.0801C217.835 21.4551 217.214 21.1426 216.426 21.1426C215.651 21.1426 215.036 21.4518 214.58 22.0703C214.124 22.6823 213.896 23.6003 213.896 24.8242ZM228.887 21.6016C228.574 21.5495 228.252 21.5234 227.92 21.5234C226.833 21.5234 226.1 21.9401 225.723 22.7734V30H223.35V19.4336H225.615L225.674 20.6152C226.247 19.6973 227.041 19.2383 228.057 19.2383C228.395 19.2383 228.675 19.2839 228.896 19.375L228.887 21.6016ZM229.746 24.6387C229.746 23.0111 230.124 21.7057 230.879 20.7227C231.634 19.7331 232.646 19.2383 233.916 19.2383C235.036 19.2383 235.941 19.6289 236.631 20.4102V15H239.004V30H236.855L236.738 28.9062C236.029 29.7656 235.081 30.1953 233.896 30.1953C232.66 30.1953 231.657 29.6973 230.889 28.7012C230.127 27.7051 229.746 26.3509 229.746 24.6387ZM232.119 24.8438C232.119 25.918 232.324 26.7578 232.734 27.3633C233.151 27.9622 233.74 28.2617 234.502 28.2617C235.472 28.2617 236.182 27.8288 236.631 26.9629V22.4512C236.195 21.6048 235.492 21.1816 234.521 21.1816C233.753 21.1816 233.161 21.4876 232.744 22.0996C232.327 22.7051 232.119 23.6198 232.119 24.8438Z" fill="white"/>
</svg>
